<?xml version="1.0"?>
<svg xmlns="http://www.w3.org/2000/svg" xmlns:xlink="http://www.w3.org/1999/xlink" xmlns:svgjs="http://svgjs.com/svgjs" version="1.1" width="512" height="512" x="0" y="0" viewBox="0 0 512 512" style="enable-background:new 0 0 512 512" xml:space="preserve" class=""><g><linearGradient xmlns="http://www.w3.org/2000/svg" id="SVGID_1_" gradientUnits="userSpaceOnUse" x1="256" x2="256" y1="512" y2="0"><stop stop-opacity="1" stop-color="#f5f5f5" offset="0"/><stop stop-opacity="1" stop-color="#f5f5f5" offset="1"/></linearGradient><g xmlns="http://www.w3.org/2000/svg"><g><path d="m116 336v100h280v-100c0-55.14-44.86-100-100-100h-40-40c-55.14 0-100 44.86-100 100zm180-60c33.084 0 60 26.916 60 60v60h-200v-60c0-33.084 26.916-60 60-60zm40-120c0-44.112-35.888-80-80-80s-80 35.888-80 80 35.888 80 80 80 80-35.888 80-80zm-80 40c-22.056 0-40-17.944-40-40s17.944-40 40-40 40 17.944 40 40-17.944 40-40 40zm216 256c0 11.028-8.972 20-20 20h-60v40h60c33.084 0 60-26.916 60-60v-60h-40zm-20-452h-60v40h60c11.028 0 20 8.972 20 20v60h40v-60c0-33.084-26.916-60-60-60zm-412 60c0-11.028 8.972-20 20-20h60v-40h-60c-33.084 0-60 26.916-60 60v60h40zm0 392v-60h-40v60c0 33.084 26.916 60 60 60h60v-40h-60c-11.028 0-20-8.972-20-20z" fill="url(#SVGID_1_)" data-original="url(#SVGID_1_)" style=""/></g></g></g></svg>
